<?xml version="1.0" encoding="UTF-8" standalone="no"?>
<!-- Created with Inkscape (http://www.inkscape.org/) -->

<svg
   xmlns:dc="http://purl.org/dc/elements/1.1/"
   xmlns:cc="http://creativecommons.org/ns#"
   xmlns:rdf="http://www.w3.org/1999/02/22-rdf-syntax-ns#"
   xmlns:svg="http://www.w3.org/2000/svg"
   xmlns="http://www.w3.org/2000/svg"
   xmlns:sodipodi="http://sodipodi.sourceforge.net/DTD/sodipodi-0.dtd"
   xmlns:inkscape="http://www.inkscape.org/namespaces/inkscape"
   width="640mm"
   height="160mm"
   viewBox="0 0 2267.7165 566.92913"
   id="svg2"
   version="1.1"
   inkscape:version="0.91 r13725"
   sodipodi:docname="drawing.svg">
  <defs
     id="defs4" />
  <sodipodi:namedview
     id="base"
     pagecolor="#ffffff"
     bordercolor="#666666"
     borderopacity="1.0"
     inkscape:pageopacity="0.0"
     inkscape:pageshadow="2"
     inkscape:zoom="0.21026759"
     inkscape:cx="1087.1908"
     inkscape:cy="1205.0718"
     inkscape:document-units="px"
     inkscape:current-layer="layer4"
     showgrid="false"
     inkscape:window-width="1855"
     inkscape:window-height="1056"
     inkscape:window-x="65"
     inkscape:window-y="24"
     inkscape:window-maximized="1" />
  <metadata
     id="metadata7">
    <rdf:RDF>
      <cc:Work
         rdf:about="">
        <dc:format>image/svg+xml</dc:format>
        <dc:type
           rdf:resource="http://purl.org/dc/dcmitype/StillImage" />
        <dc:title></dc:title>
      </cc:Work>
    </rdf:RDF>
  </metadata>
  <g
     inkscape:groupmode="layer"
     id="layer3"
     inkscape:label="bg"
     style="display:inline">
    <rect
       style="fill:#286571;fill-opacity:1;stroke:none;stroke-width:10.60000038;stroke-linecap:round;stroke-linejoin:round;stroke-miterlimit:4;stroke-dasharray:none;stroke-dashoffset:0;stroke-opacity:1"
       id="rect4164"
       width="2330.3838"
       height="598.25641"
       x="-25.749159"
       y="-19.845667" />
  </g>
  <g
     inkscape:label="Layer 1"
     inkscape:groupmode="layer"
     id="layer1"
     transform="translate(0,-485.43307)"
     style="display:inline">
    <path
       style="fill:#ffffff;fill-opacity:1;fill-rule:evenodd;stroke:none;stroke-width:11.40249443;stroke-linecap:round;stroke-linejoin:round;stroke-miterlimit:4;stroke-dasharray:none;stroke-opacity:1"
       d="m 282.56048,692.88314 c 0,0 -62.25973,-92.4828 -63.02872,-107.34169 -0.76876,-14.85888 25.44072,-30.16047 39.37728,-44.04212 13.93668,-13.88164 68.88287,-6.0161 68.88287,-6.0161 0,0 37.52972,18.3132 43.96121,28.23126 6.43149,9.91806 0.1522,46.80963 -2.18864,59.72743 -2.34097,12.9178 -45.39331,67.92813 -45.39331,67.92813 l 6.05244,13.61799 -4.53943,15.88767 c 0,0 41.77573,76.19873 41.61059,101.37847 -0.16514,25.17974 -82.46459,197.46092 -82.46459,197.46092 l 21.94014,-189.89536 -6.809,-115.75303 -20.42701,111.97025 -3.02615,191.40864 c 0,0 -50.63068,-171.19412 -47.66313,-202.75698 2.96767,-31.56285 49.93272,-93.81291 49.93272,-93.81291 l -6.05244,-18.15734 z"
       id="path4136"
       inkscape:connector-curvature="0"
       sodipodi:nodetypes="czzczzccczccccczccc" />
    <path
       style="fill:#286571;fill-opacity:1;fill-rule:evenodd;stroke:none;stroke-width:11.40249443;stroke-linecap:round;stroke-linejoin:round;stroke-miterlimit:4;stroke-dasharray:none;stroke-opacity:1"
       d="m 304.50062,676.99548 c -0.75645,-6.809 -26.13771,-50.89717 -27.91165,-61.15959 -0.94076,-5.44328 10.59185,-25.00681 10.59185,-25.00681 l 41.48912,-0.4774 c 0,0 10.21875,15.79022 11.38882,25.36278 1.17007,9.57258 -32.53187,61.28102 -32.53187,61.28102 l 0,0 -0.75657,3.02622"
       id="path4138"
       inkscape:connector-curvature="0"
       sodipodi:nodetypes="cscczccc" />
  </g>
  <g
     inkscape:groupmode="layer"
     id="layer2"
     inkscape:label="TXT"
     style="display:inline"
     sodipodi:insensitive="true">
    <path
       sodipodi:type="star"
       style="fill:#ffffff;fill-opacity:1;stroke:none;stroke-width:20;stroke-linecap:round;stroke-linejoin:round;stroke-miterlimit:4;stroke-dasharray:none;stroke-dashoffset:0;stroke-opacity:1"
       id="path4187"
       sodipodi:sides="50"
       sodipodi:cx="1138.1212"
       sodipodi:cy="302.97977"
       sodipodi:r1="1149.874"
       sodipodi:r2="12.902211"
       sodipodi:arg1="0.71883"
       sodipodi:arg2="0.66263301"
       inkscape:flatsided="false"
       inkscape:rounded="0"
       inkscape:randomized="0"
       d="M 2003.4896,1060.1771 1148.293,310.91714 1901.7639,1162.6658 1147.218,312.12941 1787.9951,1251.5967 1145.9995,313.19739 1663.9775,1325.5674 1144.6568,314.10423 1531.6667,1383.4113 1143.211,314.83563 1393.1495,1424.2161 1141.6849,315.38006 1250.6104,1447.3383 1140.1026,315.72893 1106.2972,1452.4133 1138.4891,315.87673 962.48593,1439.3611 1136.8698,315.82114 821.44452,1408.3874 1135.2702,315.56304 685.39729,1359.9809 1133.7156,315.10649 556.48979,1294.9047 1132.2304,314.45869 436.75496,1214.1854 1130.8382,313.62987 328.0811,1119.0957 1129.5608,312.63309 232.18205,1011.1355 1128.4184,311.48406 150.57021,892.00717 1127.4291,310.20092 84.532635,763.58955 1126.6083,308.8039 35.110782,627.90784 1125.9692,307.31503 3.0840627,487.10182 1125.5216,305.75779 -11.042443,343.39209 1125.2728,304.15674 -7.0459508,199.04503 1125.2266,302.53712 15.010511,56.337079 1125.3838,300.92449 54.7791,-82.481166 1125.7418,299.34427 111.63264,-215.22046 1126.2951,297.82138 184.67452,-339.78743 1127.0348,296.37984 272.75282,-454.21758 1127.9494,295.04239 374.4785,-556.70627 1129.0245,293.83012 488.24729,-645.6372 1130.2429,292.76214 612.26497,-719.60787 1131.5857,291.8553 744.57572,-777.45173 1133.0315,291.1239 883.09291,-818.25653 1134.5575,290.57947 1025.6321,-841.37877 1136.1398,290.23061 1169.9452,-846.45379 1137.7533,290.0828 1313.7565,-833.40156 1139.3726,290.13839 1454.7979,-802.42791 1140.9722,290.39649 1590.8451,-754.02133 1142.5269,290.85304 1719.7526,-688.9452 1144.012,291.50084 1839.4875,-608.22583 1145.4042,292.32966 1948.1613,-513.1362 1146.6816,293.32645 2044.0604,-405.17594 1147.824,294.47547 2125.6722,-286.04763 1148.8134,295.75861 2191.7098,-157.63002 1149.6341,297.15563 2241.1316,-21.948306 1150.2733,298.6445 2273.1584,118.85771 1150.7208,300.20175 2287.2849,262.56745 1150.9696,301.8028 2283.2884,406.91451 1151.0158,303.42241 2261.2319,549.62245 1150.8587,305.03505 2221.4633,688.4407 1150.5006,306.61527 2164.6098,821.18 1149.9474,308.13815 2091.5679,945.74696 1149.2076,309.57969 Z" />
    <text
       xml:space="preserve"
       style="font-style:normal;font-weight:normal;font-size:370.08221436px;line-height:125%;font-family:sans-serif;letter-spacing:0px;word-spacing:0px;fill:#ffffff;fill-opacity:1;stroke:none;stroke-width:3;stroke-linecap:butt;stroke-linejoin:miter;stroke-miterlimit:4;stroke-dasharray:none;stroke-opacity:1"
       x="1490.3571"
       y="426.79572"
       id="text4141-3"
       sodipodi:linespacing="125%"><tspan
         sodipodi:role="line"
         id="tspan4143-6"
         x="1490.3571"
         y="426.79572"
         style="font-style:normal;font-variant:normal;font-weight:normal;font-stretch:normal;font-size:411.20245361px;line-height:125%;font-family:'Gentium Book Basic';-inkscape-font-specification:'Gentium Book Basic, Normal';text-align:start;writing-mode:lr-tb;text-anchor:start;fill:#ffffff;fill-opacity:1;stroke:none;stroke-width:3;stroke-miterlimit:4;stroke-dasharray:none;stroke-opacity:1" /></text>
  </g>
  <g
     inkscape:groupmode="layer"
     id="layer4"
     inkscape:label="CAL"
     style="display:inline">
    <path
       style="fill:none;fill-rule:evenodd;stroke:#ffffff;stroke-width:22.63444901;stroke-linecap:round;stroke-linejoin:round;stroke-miterlimit:4;stroke-dasharray:none;stroke-opacity:1"
       d="m 1327.5294,-812.93148 c 70.4927,0 140.9854,0 211.4781,0 9.9131,0 19.8261,0 29.7391,0 0.9238,0 16.0048,0.2585 16.5217,0 2.7865,-1.39323 4.0166,-4.88059 6.6087,-6.60868 0.9165,-0.61097 2.2029,0 3.3044,0 2.2029,0 4.4058,0 6.6087,0 6.6087,0 13.2174,0 19.8261,0 22.0289,0 44.0579,0 66.0868,0"
       id="path4169"
       inkscape:connector-curvature="0" />
    <path
       style="fill:none;fill-rule:evenodd;stroke:#ffffff;stroke-width:22.63444901;stroke-linecap:round;stroke-linejoin:round;stroke-miterlimit:4;stroke-dasharray:none;stroke-opacity:1"
       d="m 1324.2251,-710.49676 c 127.768,0 255.536,0 383.304,0"
       id="path4171"
       inkscape:connector-curvature="0" />
    <path
       style="fill:none;fill-rule:evenodd;stroke:#ffffff;stroke-width:22.63444901;stroke-linecap:round;stroke-linejoin:round;stroke-miterlimit:4;stroke-dasharray:none;stroke-opacity:1"
       d="m 1330.8338,-631.19249 c 4.4058,-3.30434 8.2915,-7.45012 13.2173,-9.91303 2.9555,-1.47776 6.6087,0 9.9131,0 6.6087,0 13.2174,0 19.8261,0 23.1304,0 46.2608,0 69.3912,0 88.1159,0 176.2317,0 264.3476,0"
       id="path4173"
       inkscape:connector-curvature="0" />
    <path
       style="fill:none;fill-rule:evenodd;stroke:#ffffff;stroke-width:22.63444901;stroke-linecap:round;stroke-linejoin:round;stroke-miterlimit:4;stroke-dasharray:none;stroke-opacity:1"
       d="m 1347.3555,-551.8882 c 5.5072,0 11.0145,0 16.5217,0 1.1015,0 2.2595,0.34831 3.3044,0 13.2173,-4.40579 -0.6682,-3.17072 16.5217,-6.6087 3.2402,-0.64803 6.6087,0 9.913,0 9.9131,0 19.8261,0 29.7391,0 23.1305,0 46.2609,0 69.3913,0 78.2028,0 156.4056,0 234.6085,0"
       id="path4175"
       inkscape:connector-curvature="0" />
    <path
       style="fill:none;fill-rule:evenodd;stroke:#ffffff;stroke-width:22.63444901;stroke-linecap:round;stroke-linejoin:round;stroke-miterlimit:4;stroke-dasharray:none;stroke-opacity:1"
       d="m 1403.5294,-799.71409 c 1.1014,4.4058 2.2029,8.81158 3.3043,13.21738 0,2.2029 -0.3621,4.43577 0,6.60869 0.7466,4.47959 2.6621,8.72164 3.3044,13.21737 0.4673,3.27115 0,6.60871 0,9.91306 0,5.50723 0,11.01447 0,16.52172 0,15.42027 0,30.84054 0,46.26083 0,7.71013 0,15.42027 0,23.13041 0,3.30435 -1.045,6.77826 0,9.91304 0.4926,1.47775 2.8117,1.82659 3.3043,3.30434 0.5042,1.51261 0,14.67739 0,16.52173 0,11.01448 0,22.02897 0,33.04345 0,2.79762 -0.5921,11.44094 0,13.21738 0.4926,1.47775 2.4403,2.00828 3.3044,3.30435 1.3661,2.04926 2.5255,4.27216 3.3043,6.60869 0.8866,2.65966 -1.0558,11.10583 0,13.21738 0.6966,1.39323 2.8118,1.8266 3.3043,3.30434 0.6967,2.08985 -1.2219,4.77577 0,6.6087 1.3662,2.04926 5.2426,1.25507 6.6087,3.30433 1.222,1.83293 -0.5342,4.47157 0,6.6087 0.5974,2.38938 2.5255,4.27216 3.3044,6.60869 0.6966,2.08985 0,4.40579 0,6.60869"
       id="path4177"
       inkscape:connector-curvature="0" />
    <path
       style="fill:none;fill-rule:evenodd;stroke:#ffffff;stroke-width:22.63444901;stroke-linecap:round;stroke-linejoin:round;stroke-miterlimit:4;stroke-dasharray:none;stroke-opacity:1"
       d="m 1330.8338,-799.71409 c 0,26.43476 0,52.86952 0,79.30429 0,7.71014 0.8514,15.46743 0,23.13041 -0.6202,5.58196 -2.3811,10.98184 -3.3044,16.52172 -0.7243,4.34585 0,8.81159 0,13.21739 0,8.81158 0,17.62317 0,26.43476 0,28.63766 0,57.27532 0,85.91297"
       id="path4179"
       inkscape:connector-curvature="0" />
    <path
       style="fill:none;fill-rule:evenodd;stroke:#ffffff;stroke-width:22.63444901;stroke-linecap:round;stroke-linejoin:round;stroke-miterlimit:4;stroke-dasharray:none;stroke-opacity:1"
       d="m 1505.9641,-786.49671 c 0,5.50724 -1.0801,11.12143 0,16.52173 1.1632,5.81629 5.3219,10.73149 6.6087,16.52172 0.9557,4.30089 -0.5465,8.84561 0,13.21739 0.5633,4.50631 2.8524,8.69852 3.3043,13.21737 0.8007,8.00681 0,30.0534 0,39.65214 0,14.31884 0,28.63766 0,42.95649 0,3.90311 -0.655,17.86112 0,19.82607 0.4926,1.47775 2.8118,1.8266 3.3044,3.30435 0.6966,2.08985 -0.5343,4.47157 0,6.60868 0.5973,2.38938 2.3896,4.32194 3.3043,6.6087 1.2936,3.23396 2.0108,6.67907 3.3043,9.91303 0.9147,2.28676 2.5255,4.27218 3.3044,6.6087 0.3483,1.04493 0,2.2029 0,3.30433 0,6.6087 0,13.21739 0,19.82608 0,2.2029 -0.6966,4.51885 0,6.6087 0.7788,2.33652 1.5628,4.86714 3.3043,6.60868 4.4058,4.40579 3.3044,-5.50723 3.3044,3.30435"
       id="path4181"
       inkscape:connector-curvature="0" />
    <path
       style="fill:none;fill-rule:evenodd;stroke:#ffffff;stroke-width:22.63444901;stroke-linecap:round;stroke-linejoin:round;stroke-miterlimit:4;stroke-dasharray:none;stroke-opacity:1"
       d="m 1628.2249,-806.32277 c 0,13.21737 0,26.43475 0,39.65212 0,39.65215 0,79.30429 0,118.95644 0,12.11594 0,24.23186 0,36.3478 0,0.9238 0.2584,16.00472 0,16.52172 -4.4058,8.81158 -3.3044,-9.91304 -3.3044,3.30435 0,9.91303 0,19.82607 0,29.73911 0,2.20288 0,4.40578 0,6.60868 0,1.10145 -0.7788,2.52551 0,3.30435 0.7788,0.77885 2.2029,0 3.3044,0"
       id="path4183"
       inkscape:connector-curvature="0" />
    <path
       style="fill:none;fill-rule:evenodd;stroke:#ffffff;stroke-width:22.63444901;stroke-linecap:round;stroke-linejoin:round;stroke-miterlimit:4;stroke-dasharray:none;stroke-opacity:1"
       d="m 1700.9204,-809.62713 c 0,31.94201 0,63.88401 0,95.82602 0,9.91303 0,19.82607 0,29.7391 0,3.30434 -0.5432,6.65365 0,9.91304 0.5727,3.43569 2.4597,6.53394 3.3044,9.91304 0.7775,3.10996 -0.7775,6.80305 0,9.91302 0.5973,2.38939 2.707,4.21933 3.3043,6.6087 1.3357,5.3428 -1.08,11.12142 0,16.52172 0.483,2.41508 2.5255,4.27217 3.3044,6.60869 0.3483,1.04493 0,2.2029 0,3.30435 0,6.60868 0,13.21738 0,19.82607 0,3.30434 -0.8014,6.70736 0,9.91304 0.5973,2.38938 2.5255,4.27216 3.3043,6.60869 0.3484,1.04492 -0.7788,2.5255 0,3.30434 0.7789,0.77884 2.5255,-0.77884 3.3044,0 0,0.003 -0.01,9.89806 0,9.91304 0.4926,1.47774 2.4402,2.00827 3.3043,3.30434 7.28,1.66404 1.7466,6.79767 3.3044,9.91303 0.6966,1.39324 2.6077,1.91112 3.3043,3.30435 0.4926,0.98517 0,2.2029 0,3.30435 0,1.10144 0,2.20289 0,3.30434"
       id="path4185"
       inkscape:connector-curvature="0" />
    <text
       xml:space="preserve"
       style="font-style:normal;font-weight:normal;font-size:180px;line-height:125%;font-family:'Elementary Gothic Bookhand';letter-spacing:0px;word-spacing:0px;opacity:0.26600001;fill:#000000;fill-opacity:1;stroke:none;stroke-width:1px;stroke-linecap:butt;stroke-linejoin:miter;stroke-opacity:1;-inkscape-font-specification:'Elementary Gothic Bookhand, Normal';font-stretch:normal;font-variant:normal;text-anchor:start;text-align:start;writing-mode:lr;"
       x="513.83533"
       y="395.09546"
       id="text4189"
       sodipodi:linespacing="125%"><tspan
         sodipodi:role="line"
         id="tspan4191"
         x="513.83533"
         y="395.09546"
         style="font-style:normal;font-variant:normal;font-weight:normal;font-stretch:normal;font-size:180px;line-height:125%;font-family:'Elementary Gothic Bookhand';-inkscape-font-specification:'Elementary Gothic Bookhand, Normal';text-align:start;writing-mode:lr;text-anchor:start;">HOLLYROSA</tspan></text>
  </g>
</svg>
